<?xml version="1.0" encoding="utf-8"?>
<!-- Generator: Adobe Illustrator 25.4.1, SVG Export Plug-In . SVG Version: 6.00 Build 0)  -->
<svg version="1.0" id="katman_1" xmlns="http://www.w3.org/2000/svg" xmlns:xlink="http://www.w3.org/1999/xlink" x="0px" y="0px"
	 viewBox="0 0 1024 768" style="enable-background:new 0 0 1024 768;" xml:space="preserve">
<style type="text/css">
	.st0{fill:#F4B11B;}
	.st1{fill:#283371;}
</style>
<g>
	<g>
		<path class="st0" d="M162.5,359.2c0,19.6-12,37.4-35,41.6l32.7,38.7l3-4.1l58.7-83.1v-35.5h-95.5
			C150.8,319.4,162.5,339.5,162.5,359.2z"/>
		<path class="st1" d="M95.5,382.9h22.6c16.7,0,25-11.7,25-23.7c0-12-8.3-23.1-25-23.1h-31v115.8h57.7l-49.3-59.4V382.9z
			 M179.2,445.7l43.4-60.7v66.6h-47.6L179.2,445.7z"/>
		<rect x="420.3" y="339.5" class="st1" width="19.6" height="92"/>
		<path class="st1" d="M556.6,411.5H454.7v20.3h102.7c7.7,0,14.3-3,19.6-8.3c5.3-5.3,8.3-12,8.3-19.6c0-7.7-3-14.3-8.3-19.6
			c-5.3-5.3-12-8.3-19.6-8.3l-74.7-0.4c-4.3,0-7.9-3.6-7.9-7.9l0,0l0,0c0-4.5,3.6-7.9,8.1-7.9h102.5v-19.6H482.7
			c-7.7,0-14.3,3-19.6,8.3s-8.3,12-8.3,19.6c0,7.7,3,14.3,8.3,19.6c5.3,5.3,11.7,7.7,19.6,7.7h74.5c4.5,0,8.1,3.6,7.9,8.1l0,0l0,0
			C565.3,407.7,561.5,411.5,556.6,411.5z"/>
		<path class="st1" d="M640.5,339.5h85v19.6h-85c-7,0-13,2.3-18.4,7.7c-5.3,5.3-7.7,11.3-7.7,18.4s2.3,13,7.7,18.4
			c5.3,5.3,11.3,7.7,18.4,7.7h85v20.3h-84.8c-12.4,0-23.3-4.7-32-13.7c-8.8-9-13-19.6-13-32s4.1-23.1,13-32
			C617.4,344.2,628.1,339.5,640.5,339.5z"/>
		<path class="st1" d="M376.9,376.5l-82-0.2v-16.4l82.9-0.2c4.5,0,8.1,3.6,8.1,8.1l0,0l0,0C385.9,372.4,381.9,376.5,376.9,376.5z
			 M406,431.6l-26.1-36.3c7-0.6,13-3,17.7-8.3c5.3-5.3,8.3-12,8.3-19.6s-3-14.3-8.3-19.6c-5.3-5.3-12-8.3-19.6-8.3H275.3v92h19.6
			v-36.3h60.7l26.1,36.3L406,431.6L406,431.6z"/>
		<polyline class="st0" points="823.3,431.6 769.5,339.5 792.5,339.5 834.6,412.6 876.7,339.5 899.3,339.5 845.9,431.6 		"/>
		<rect x="737.2" y="376.9" class="st0" width="38.7" height="17.7"/>
	</g>
	<g>
		<path class="st1" d="M937.1,354.3c0,7.9-6.2,14.3-14.5,14.3c-8.1,0-14.5-6.2-14.5-14.3c0-7.9,6.4-14.1,14.5-14.1
			C930.7,340.2,937.1,346.4,937.1,354.3z M911.5,354.3c0,6.2,4.7,11.3,11.1,11.3c6.2,0,10.9-4.9,10.9-11.3c0-6.2-4.5-11.3-10.9-11.3
			C916.2,342.9,911.5,348.1,911.5,354.3z M920.3,361.5h-3.2v-14.1c1.3-0.2,3-0.4,5.3-0.4c2.6,0,3.8,0.4,4.9,1.1
			c0.9,0.6,1.3,1.7,1.3,3c0,1.5-1.3,2.8-3,3.2v0.2c1.3,0.4,2.1,1.5,2.6,3.4c0.4,2.1,0.6,3,1.1,3.4h-3.4c-0.4-0.4-0.6-1.7-1.1-3.4
			c-0.2-1.5-1.1-2.1-3-2.1h-1.5V361.5z M920.5,353.6h1.5c1.7,0,3.2-0.6,3.2-2.1c0-1.3-0.9-2.1-3-2.1c-0.9,0-1.5,0-1.7,0.2
			L920.5,353.6L920.5,353.6z"/>
	</g>
</g>
</svg>
